<svg width="197" height="156" viewBox="0 0 197 156" fill="none" xmlns="http://www.w3.org/2000/svg">
<g filter="url(#filter0_d_43_1583)">
<rect x="7.51465" y="28.1779" width="100.492" height="45.771" rx="3.507" transform="rotate(-16.284 7.51465 28.1779)" fill="#BEBEBE"/>
<rect x="7.51465" y="28.1779" width="100.492" height="45.771" rx="3.507" transform="rotate(-16.284 7.51465 28.1779)" fill="#BEBEBE"/>
<rect x="7.51465" y="28.1779" width="100.492" height="45.771" rx="3.507" transform="rotate(-16.284 7.51465 28.1779)" fill="#FFCF5F"/>
</g>
<g filter="url(#filter1_d_43_1583)">
<rect x="21.5631" y="74.8552" width="100.492" height="69.6042" rx="3.507" transform="rotate(-16.284 21.5631 74.8552)" fill="#BEBEBE"/>
<rect x="21.5631" y="74.8552" width="100.492" height="69.6042" rx="3.507" transform="rotate(-16.284 21.5631 74.8552)" fill="#BEBEBE"/>
<rect x="21.5631" y="74.8552" width="100.492" height="69.6042" rx="3.507" transform="rotate(-16.284 21.5631 74.8552)" fill="#F0F0F0"/>
<rect x="21.8117" y="74.9914" width="100.092" height="69.2034" rx="3.3066" transform="rotate(-16.284 21.8117 74.9914)" stroke="#C4C4C4" stroke-width="0.4008"/>
</g>
<g filter="url(#filter2_d_43_1583)">
<path d="M1.10039 41.2811L3.38464 34.5045C3.69746 33.5764 5.00606 33.5588 5.28257 34.4983C10.3407 51.6846 35.4255 136.925 36.2913 140.032C37.2543 143.487 41.2762 146.49 45.978 145.243C50.2743 144.105 122.398 123.053 134.804 119.431C135.583 119.204 136.256 119.958 135.995 120.726L133.496 128.094C133.391 128.404 133.193 128.628 132.878 128.719C126.337 130.613 50.5777 152.524 44.5618 153.174C38.2739 153.854 32.326 150.568 30.5699 145.243C28.8179 139.931 13.5481 84.7752 1.08701 41.8784C1.02993 41.6819 1.03503 41.475 1.10039 41.2811Z" fill="url(#paint0_linear_43_1583)"/>
</g>
<path d="M54.4609 44.0008C54.1556 44.0895 53.8958 44.0703 53.6815 43.9433C53.4673 43.8163 53.3158 43.6001 53.2272 43.2948L50.373 33.4632C50.2812 33.147 50.2988 32.8817 50.4258 32.6675C50.5497 32.4423 50.7643 32.2854 51.0696 32.1968C51.3423 32.1176 51.5707 32.1104 51.7551 32.1752C51.9472 32.2258 52.1451 32.3576 52.3487 32.5704L58.5596 38.8733L58.0361 39.0253L59.9064 30.3764C59.9645 30.0876 60.0556 29.8719 60.1798 29.7294C60.3008 29.576 60.4976 29.4598 60.7703 29.3806C61.0756 29.292 61.3354 29.3112 61.5497 29.4382C61.7607 29.5543 61.9122 29.7704 62.004 30.0867L64.8582 39.9182C64.9468 40.2236 64.9347 40.4873 64.8217 40.7092C64.7197 40.9281 64.5106 41.0834 64.1943 41.1752C63.8889 41.2638 63.6291 41.2447 63.4149 41.1177C63.2007 40.9907 63.0492 40.7745 62.9606 40.4691L60.7618 32.8951L61.1217 32.7906L59.5052 40.0532C59.45 40.2703 59.3751 40.4399 59.2804 40.5619C59.1858 40.684 59.0349 40.7751 58.8276 40.8353C58.6204 40.8954 58.4387 40.9009 58.2825 40.8516C58.1232 40.7915 57.9691 40.6884 57.8203 40.5424L52.5286 35.2675L52.9212 35.1535L55.1248 42.7439C55.2134 43.0492 55.2013 43.3129 55.0884 43.5349C54.9863 43.7537 54.7772 43.909 54.4609 44.0008ZM70.3684 42.5755C70.1284 42.6452 69.9131 42.6367 69.7225 42.5502C69.5349 42.4746 69.3948 42.3379 69.3019 42.1402C69.2199 41.9393 69.1948 41.7101 69.2264 41.4526L69.6217 38.6595L69.8687 39.5101L64.8921 33.4875C64.7243 33.2761 64.6266 33.062 64.5992 32.8453C64.5718 32.6286 64.6224 32.4365 64.7512 32.269C64.8877 32.0875 65.1032 31.954 65.3976 31.8685C65.6485 31.7957 65.8676 31.7971 66.0551 31.8728C66.2395 31.9375 66.4375 32.1106 66.6493 32.392L70.4581 37.2638L69.9674 37.4062L70.6197 31.2217C70.651 30.8815 70.7326 30.6331 70.8646 30.4766C70.9933 30.3091 71.194 30.1858 71.4667 30.1066C71.7066 30.037 71.9164 30.047 72.0962 30.1367C72.2728 30.2155 72.4076 30.3538 72.5004 30.5515C72.5901 30.7383 72.6153 30.9675 72.5759 31.2391L71.2364 41.4721C71.1833 41.8187 71.0908 42.0702 70.9588 42.2267C70.8269 42.3833 70.6301 42.4995 70.3684 42.5755Z" fill="white"/>
<path d="M56.2193 103.705C55.1685 104.01 54.222 104.071 53.3798 103.887C52.5466 103.7 51.8358 103.298 51.2474 102.68C50.659 102.062 50.22 101.255 49.9306 100.258C49.7116 99.5032 49.6225 98.7939 49.6634 98.1296C49.7133 97.4626 49.8835 96.8582 50.1741 96.3161C50.471 95.7625 50.8878 95.286 51.4243 94.8868C51.9583 94.4786 52.607 94.1637 53.3704 93.9421C53.8733 93.7961 54.3945 93.7129 54.934 93.6927C55.4798 93.6608 56.0189 93.7234 56.5514 93.8804C56.7328 93.9349 56.8668 94.0275 56.9534 94.1581C57.049 94.2862 57.101 94.4318 57.1094 94.5949C57.1152 94.749 57.0844 94.8943 57.0169 95.0307C56.9493 95.1672 56.8432 95.2711 56.6983 95.3423C56.5624 95.411 56.3903 95.422 56.182 95.3753C55.7834 95.2768 55.3959 95.2335 55.0196 95.2454C54.6432 95.2573 54.2395 95.3258 53.8084 95.4509C53.1438 95.6439 52.6216 95.9415 52.2418 96.3439C51.8593 96.7374 51.6244 97.2195 51.5369 97.7902C51.4583 98.3583 51.5247 99.0061 51.7359 99.7336C52.0566 100.838 52.5653 101.601 53.262 102.022C53.9588 102.443 54.8281 102.502 55.8699 102.2C56.2292 102.096 56.5825 101.954 56.9298 101.775C57.2772 101.597 57.6078 101.393 57.9215 101.166L57.8077 102.032L56.9746 99.1622L55.4927 99.5924C55.2682 99.6576 55.0761 99.6501 54.9165 99.5698C54.7658 99.487 54.6618 99.3467 54.6045 99.1491C54.5445 98.9426 54.5573 98.7685 54.6427 98.6268C54.7372 98.4825 54.8967 98.3778 55.1212 98.3126L57.344 97.6673C57.5686 97.6021 57.7575 97.6154 57.9107 97.7073C58.0704 97.7875 58.1828 97.9399 58.2479 98.1645L59.1983 101.438C59.2557 101.636 59.2635 101.814 59.2218 101.972C59.189 102.127 59.0965 102.261 58.9441 102.374C58.5906 102.632 58.1723 102.885 57.689 103.132C57.2032 103.371 56.7132 103.562 56.2193 103.705ZM64.657 101.256C63.9116 101.472 63.229 101.519 62.6093 101.397C61.9896 101.275 61.4573 101.001 61.0123 100.576C60.5763 100.147 60.2566 99.5825 60.0532 98.882C59.8551 98.1994 59.8209 97.5618 59.9507 96.969C60.0895 96.3736 60.3641 95.8606 60.7747 95.4298C61.1916 94.9874 61.7189 94.6736 62.3565 94.4885C62.8235 94.3529 63.2633 94.308 63.6759 94.3538C64.0974 94.397 64.4801 94.5245 64.824 94.7362C65.1769 94.9454 65.4806 95.237 65.7353 95.611C65.9963 95.9735 66.2012 96.4107 66.3498 96.9226C66.3967 97.0843 66.3748 97.2269 66.2841 97.3506C66.1998 97.4628 66.0544 97.5488 65.8478 97.6088L61.5234 98.8642L61.2418 97.8942L65.0274 96.7952L64.8705 97.0599C64.7505 96.6468 64.5873 96.3192 64.3807 96.0773C64.1832 95.8328 63.9467 95.6726 63.6715 95.5967C63.4027 95.5092 63.0976 95.515 62.7563 95.614C62.3791 95.7236 62.0819 95.9072 61.8646 96.1651C61.6536 96.4113 61.5233 96.717 61.4734 97.082C61.43 97.4355 61.4721 97.8322 61.5999 98.2723L61.6273 98.3666C61.841 99.1031 62.172 99.6059 62.6202 99.875C63.0748 100.133 63.6389 100.164 64.3124 99.968C64.546 99.9003 64.7986 99.7977 65.0703 99.6604C65.3485 99.5115 65.5969 99.3274 65.8156 99.1081C65.973 98.9455 66.1261 98.8524 66.275 98.8286C66.4213 98.7959 66.5479 98.8127 66.6548 98.879C66.7707 98.9428 66.8572 99.0394 66.9142 99.1689C66.9687 99.2894 66.9796 99.4275 66.9468 99.5831C66.9231 99.736 66.8447 99.8854 66.7117 100.031C66.4547 100.32 66.134 100.574 65.7496 100.792C65.3715 101 65.0073 101.154 64.657 101.256ZM70.9617 99.4254C70.2163 99.6418 69.5937 99.5937 69.094 99.2811C68.5916 98.9595 68.2205 98.3856 67.9806 97.5593L66.1307 91.1871C66.0499 90.9087 66.0605 90.6768 66.1625 90.4914C66.2644 90.306 66.4502 90.1742 66.7196 90.0959C66.989 90.0177 67.2164 90.0296 67.4019 90.1316C67.5963 90.231 67.7339 90.4199 67.8147 90.6983L69.6411 96.9896C69.761 97.4027 69.935 97.6833 70.163 97.8314C70.4 97.9768 70.6802 98.0026 71.0035 97.9087C71.0753 97.8879 71.1427 97.8683 71.2056 97.8501C71.2658 97.8228 71.3261 97.7956 71.3863 97.7684C71.5069 97.7139 71.6026 97.7251 71.6736 97.8018C71.742 97.8696 71.814 98.0338 71.8896 98.2942C71.9548 98.5188 71.9607 98.7069 71.9074 98.8587C71.8541 99.0105 71.728 99.1299 71.5293 99.2168C71.4421 99.2519 71.3504 99.2882 71.2542 99.3259C71.158 99.3635 71.0605 99.3967 70.9617 99.4254ZM75.1829 98.2C74.7069 98.3381 74.2543 98.3722 73.8249 98.3021C73.4019 98.2204 73.037 98.0536 72.7302 97.8019C72.4324 97.5475 72.2261 97.2227 72.1114 96.8275C71.9706 96.3425 71.9855 95.9243 72.1562 95.5729C72.3242 95.2125 72.6729 94.8873 73.2022 94.5973C73.7315 94.3073 74.4722 94.0241 75.4242 93.7478L76.0978 93.5522L76.3794 94.5222L75.7193 94.7138C75.1624 94.8755 74.7257 95.0315 74.409 95.1818C74.0923 95.3322 73.8817 95.4956 73.7771 95.672C73.6789 95.8369 73.6637 96.0361 73.7315 96.2696C73.8175 96.5659 73.9912 96.7785 74.2525 96.9071C74.5139 97.0357 74.8286 97.0466 75.1969 96.9397C75.4932 96.8537 75.7341 96.7107 75.9196 96.5108C76.1114 96.2993 76.2394 96.0528 76.3037 95.7712C76.3681 95.4895 76.3546 95.1916 76.2633 94.8772L75.8136 93.328C75.6832 92.8789 75.4906 92.5843 75.2356 92.4441C74.9807 92.3038 74.6197 92.3015 74.1527 92.4371C73.8922 92.5127 73.6184 92.6263 73.3313 92.7778C73.0532 92.9267 72.7701 93.1257 72.4821 93.3749C72.335 93.5052 72.1888 93.572 72.0437 93.5752C71.9075 93.5758 71.7878 93.5326 71.6847 93.4457C71.579 93.3498 71.5065 93.2345 71.4674 93.0998C71.4283 92.965 71.4264 92.8244 71.4618 92.6778C71.4945 92.5222 71.5871 92.3882 71.7395 92.2758C72.1031 91.9852 72.463 91.7493 72.8194 91.5679C73.1847 91.384 73.5246 91.2463 73.8389 91.1551C74.4856 90.9674 75.0441 90.9123 75.5146 90.99C75.9941 91.065 76.3958 91.2746 76.7197 91.6188C77.041 91.954 77.2929 92.436 77.4754 93.0647L78.414 96.2979C78.4948 96.5763 78.4901 96.8114 78.3997 97.0032C78.3067 97.186 78.1344 97.3139 77.8829 97.3869C77.6315 97.4599 77.413 97.4454 77.2276 97.3434C77.0486 97.2299 76.9186 97.0339 76.8378 96.7555L76.6501 96.1088L76.7579 96.0775C76.7862 96.4101 76.74 96.7206 76.6192 97.0088C76.5048 97.2855 76.3266 97.5271 76.0847 97.7337C75.8428 97.9402 75.5422 98.0957 75.1829 98.2ZM82.9141 95.9556C82.3393 96.1224 81.7914 96.1305 81.2705 95.9799C80.7586 95.8266 80.3071 95.5292 79.916 95.0877C79.5222 94.6372 79.2237 94.0616 79.0203 93.3611C78.8144 92.6516 78.7596 92.0102 78.8561 91.4368C78.95 90.8545 79.172 90.3615 79.5223 89.958C79.8816 89.5518 80.3486 89.2653 80.9234 89.0984C81.4712 88.9394 81.9864 88.9359 82.4687 89.088C82.9601 89.2375 83.3415 89.5114 83.6129 89.9098L83.4648 89.9528L82.4479 86.4502C82.3671 86.1717 82.3777 85.9398 82.4796 85.7544C82.5816 85.569 82.7673 85.4372 83.0368 85.359C83.3062 85.2807 83.5336 85.2926 83.7191 85.3946C83.9134 85.494 84.0511 85.6829 84.1319 85.9613L86.455 93.9635C86.5358 94.242 86.5265 94.4784 86.4272 94.6728C86.3252 94.8582 86.1395 94.99 85.87 95.0682C85.6006 95.1464 85.3732 95.1345 85.1878 95.0326C84.9997 94.9216 84.8653 94.7269 84.7845 94.4485L84.4794 93.3977L84.7449 93.7588C84.7458 94.265 84.5801 94.7172 84.2478 95.1156C83.9155 95.5139 83.4709 95.7939 82.9141 95.9556ZM83.014 94.5389C83.3463 94.4424 83.6148 94.2768 83.8193 94.0422C84.0238 93.8075 84.1479 93.5134 84.1913 93.16C84.2412 92.7949 84.197 92.3744 84.0588 91.8984C83.8502 91.1799 83.5424 90.6899 83.1353 90.4282C82.7257 90.1576 82.2694 90.0953 81.7664 90.2414C81.4341 90.3378 81.1657 90.5034 80.9612 90.7381C80.754 90.9637 80.6255 91.2591 80.5757 91.6241C80.5322 91.9776 80.5796 92.3923 80.7178 92.8683C80.9238 93.5778 81.2329 94.0724 81.6451 94.352C82.0548 94.6226 82.5111 94.6849 83.014 94.5389ZM91.7059 93.4032C90.9604 93.6197 90.2779 93.6669 89.6582 93.5449C89.0385 93.4229 88.5061 93.149 88.0611 92.7231C87.6251 92.2946 87.3054 91.7301 87.1021 91.0295C86.9039 90.347 86.8697 89.7093 86.9995 89.1166C87.1383 88.5212 87.413 88.0081 87.8235 87.5773C88.2404 87.1349 88.7677 86.8212 89.4054 86.6361C89.8724 86.5005 90.3122 86.4556 90.7247 86.5014C91.1463 86.5445 91.529 86.672 91.8729 86.8838C92.2257 87.093 92.5295 87.3846 92.7841 87.7586C93.0452 88.121 93.25 88.5582 93.3986 89.0702C93.4455 89.2318 93.4237 89.3745 93.333 89.4982C93.2487 89.6103 93.1032 89.6964 92.8967 89.7563L88.5722 91.0117L88.2906 90.0418L92.0762 88.9428L91.9193 89.2075C91.7994 88.7943 91.6361 88.4668 91.4296 88.2249C91.232 87.9804 90.9956 87.8201 90.7204 87.7442C90.4515 87.6567 90.1464 87.6625 89.8051 87.7616C89.4279 87.8711 89.1307 88.0548 88.9134 88.3126C88.7025 88.5589 88.5721 88.8645 88.5223 89.2296C88.4788 89.583 88.521 89.9798 88.6487 90.4199L88.6761 90.5142C88.8899 91.2506 89.2209 91.7534 89.6691 92.0226C90.1236 92.2801 90.6877 92.3111 91.3613 92.1156C91.5948 92.0478 91.8474 91.9453 92.1192 91.8079C92.3973 91.659 92.6457 91.4749 92.8645 91.2556C93.0218 91.0931 93.1749 90.9999 93.3238 90.9762C93.4701 90.9434 93.5967 90.9603 93.7036 91.0266C93.8195 91.0903 93.906 91.187 93.9631 91.3165C94.0175 91.437 94.0284 91.575 93.9957 91.7306C93.9719 91.8836 93.8935 92.0329 93.7606 92.1787C93.5036 92.4675 93.1829 92.7213 92.7984 92.94C92.4203 93.1471 92.0561 93.3016 91.7059 93.4032ZM96.5843 91.9432C96.3149 92.0214 96.0848 92.0005 95.8942 91.8806C95.7036 91.7607 95.5665 91.557 95.4831 91.2696L94.0478 86.3254C93.9618 86.0291 93.9684 85.7837 94.0678 85.5893C94.1646 85.3859 94.3477 85.2451 94.6171 85.1669C94.8865 85.0887 95.1166 85.1095 95.3072 85.2295C95.5042 85.3378 95.6457 85.5402 95.7318 85.8366L97.1671 90.7807C97.2505 91.0681 97.2439 91.3135 97.1471 91.5169C97.0503 91.7203 96.8627 91.8624 96.5843 91.9432ZM94.2534 83.914C93.939 84.0052 93.6699 84.0006 93.446 83.9001C93.2284 83.788 93.0792 83.5927 92.9984 83.3143C92.9149 83.0269 92.9364 82.7821 93.0627 82.5798C93.198 82.375 93.4228 82.227 93.7371 82.1357C94.0605 82.0419 94.3296 82.0465 94.5446 82.1496C94.7595 82.2528 94.9087 82.448 94.9922 82.7354C95.073 83.0139 95.0516 83.2587 94.9278 83.4699C94.8015 83.6721 94.5767 83.8201 94.2534 83.914ZM100.049 90.952C99.7705 91.0328 99.5341 91.0236 99.3397 90.9242C99.1516 90.8132 99.0172 90.6185 98.9364 90.3401L97.4581 85.2478C97.3772 84.9694 97.3878 84.7374 97.4898 84.552C97.5918 84.3666 97.773 84.2361 98.0334 84.1605C98.2939 84.0849 98.5168 84.0981 98.7022 84.2C98.8877 84.302 99.0208 84.4922 99.1016 84.7706L99.348 85.6194L99.2133 85.6585C99.1826 85.0831 99.3109 84.6027 99.5983 84.2174C99.8857 83.8321 100.327 83.5239 100.922 83.2927C101.105 83.22 101.268 83.2263 101.41 83.3118C101.558 83.3857 101.675 83.5368 101.76 83.7651C101.843 83.9844 101.843 84.1842 101.759 84.3644C101.681 84.533 101.525 84.6659 101.291 84.7633L101.002 84.8763C100.47 85.0892 100.106 85.3798 99.9112 85.748C99.7136 86.1072 99.6891 86.5428 99.8377 87.0548L100.647 89.8434C100.728 90.1218 100.719 90.3582 100.619 90.5526C100.517 90.7381 100.327 90.8712 100.049 90.952ZM106.573 89.0871C106.097 89.2253 105.645 89.2594 105.215 89.1893C104.792 89.1075 104.427 88.9408 104.121 88.689C103.823 88.4347 103.616 88.1099 103.502 87.7147C103.361 87.2297 103.376 86.8115 103.547 86.4601C103.715 86.0997 104.063 85.7745 104.593 85.4845C105.122 85.1945 105.863 84.9113 106.815 84.635L107.488 84.4394L107.77 85.4094L107.11 85.601C106.553 85.7627 106.116 85.9187 105.799 86.069C105.483 86.2194 105.272 86.3828 105.167 86.5592C105.069 86.7241 105.054 86.9232 105.122 87.1568C105.208 87.4531 105.382 87.6656 105.643 87.7943C105.904 87.9229 106.219 87.9338 106.587 87.8269C106.884 87.7408 107.124 87.5979 107.31 87.398C107.502 87.1865 107.63 86.9399 107.694 86.6583C107.758 86.3767 107.745 86.0788 107.654 85.7644L107.204 84.2152C107.074 83.7661 106.881 83.4715 106.626 83.3312C106.371 83.191 106.01 83.1887 105.543 83.3243C105.283 83.3999 105.009 83.5134 104.722 83.665C104.444 83.8139 104.16 84.0129 103.872 84.2621C103.725 84.3924 103.579 84.4592 103.434 84.4624C103.298 84.463 103.178 84.4198 103.075 84.3329C102.969 84.237 102.897 84.1217 102.858 83.987C102.819 83.8522 102.817 83.7116 102.852 83.565C102.885 83.4094 102.977 83.2754 103.13 83.163C103.493 82.8724 103.853 82.6365 104.21 82.4551C104.575 82.2711 104.915 82.1335 105.229 82.0423C105.876 81.8546 106.434 81.7995 106.905 81.8772C107.384 81.9522 107.786 82.1618 108.11 82.506C108.431 82.8412 108.683 83.3232 108.866 83.9518L109.804 87.1851C109.885 87.4635 109.88 87.6986 109.79 87.8904C109.697 88.0732 109.525 88.2011 109.273 88.2741C109.022 88.3471 108.803 88.3326 108.618 88.2306C108.439 88.1171 108.309 87.9211 108.228 87.6427L108.04 86.996L108.148 86.9647C108.177 87.2973 108.13 87.6077 108.01 87.896C107.895 88.1727 107.717 88.4143 107.475 88.6209C107.233 88.8274 106.933 88.9829 106.573 89.0871Z" fill="#969696"/>
<path d="M127.534 144.99C126.251 144.99 125.089 144.71 124.047 144.149C123.031 143.587 122.11 142.853 121.281 141.944C120.48 141.036 119.745 140.074 119.077 139.058C118.81 138.658 118.489 138.097 118.115 137.375C117.741 136.627 117.353 135.812 116.953 134.93C116.552 134.048 116.151 133.193 115.75 132.365C115.376 131.51 115.042 130.789 114.748 130.201C114.428 129.506 114.16 129.065 113.947 128.878C113.76 128.691 113.733 128.531 113.866 128.397C113.893 128.397 113.907 128.384 113.907 128.357C114.013 128.25 114.147 128.223 114.307 128.277C114.441 128.33 114.561 128.384 114.668 128.437C114.802 128.491 114.935 128.544 115.069 128.598C116.031 128.918 117.059 129.079 118.155 129.079C119.304 129.079 120.453 128.891 121.602 128.517C122.751 128.117 123.806 127.569 124.768 126.874C125.73 126.153 126.492 125.284 127.053 124.269C127.641 123.227 127.935 122.065 127.935 120.782C127.935 119.633 127.654 118.537 127.093 117.495C126.532 116.453 125.703 115.585 124.608 114.89C123.379 114.115 121.802 113.527 119.878 113.127C117.955 112.699 115.964 112.485 113.907 112.485C112.33 112.485 110.74 112.646 109.137 112.966C107.561 113.26 106.091 113.715 104.728 114.329C103.365 114.917 102.217 115.665 101.281 116.574C100.587 117.268 99.9587 118.163 99.3975 119.259C98.8364 120.354 98.5559 121.45 98.5559 122.545C98.5559 123.053 98.636 123.547 98.7963 124.028C99.0368 124.777 99.4911 125.351 100.159 125.752C100.854 126.126 101.629 126.313 102.484 126.313C103.152 126.313 103.846 126.193 104.568 125.952C104.595 125.952 104.608 125.952 104.608 125.952C104.635 125.926 104.661 125.912 104.688 125.912C104.768 125.912 104.808 125.939 104.808 125.992C104.808 126.126 104.728 126.219 104.568 126.273C103.846 126.54 103.031 126.674 102.123 126.674C101.268 126.674 100.44 126.513 99.638 126.193C98.8631 125.872 98.2219 125.378 97.7142 124.71C97.2332 124.042 96.9927 123.187 96.9927 122.145C96.9927 121.29 97.113 120.515 97.3535 119.82C97.5939 119.099 97.9146 118.444 98.3154 117.856C99.0101 116.814 99.9319 115.919 101.081 115.171C102.23 114.423 103.526 113.808 104.969 113.327C106.412 112.846 107.908 112.499 109.458 112.285C111.007 112.045 112.53 111.924 114.027 111.924C116.138 111.924 118.168 112.085 120.119 112.405C122.096 112.699 123.726 113.127 125.009 113.688C126.799 114.436 128.081 115.411 128.856 116.614C129.631 117.816 130.019 119.072 130.019 120.381C130.019 121.877 129.671 123.2 128.977 124.349C128.282 125.498 127.36 126.473 126.211 127.275C125.089 128.05 123.846 128.651 122.484 129.079C121.148 129.479 119.825 129.68 118.516 129.68C117.955 129.68 117.393 129.653 116.832 129.6C116.298 129.519 115.777 129.413 115.269 129.279C115.643 129.787 116.111 130.455 116.672 131.283C117.233 132.085 117.808 132.94 118.395 133.848C119.01 134.73 119.571 135.558 120.079 136.333C120.613 137.108 121.041 137.696 121.361 138.097C121.949 138.871 122.644 139.7 123.446 140.581C124.247 141.463 125.116 142.211 126.051 142.826C127.013 143.441 128.001 143.748 129.017 143.748C129.711 143.748 130.313 143.574 130.82 143.227C131.328 142.879 131.715 142.479 131.983 142.024C132.277 141.517 132.423 140.875 132.423 140.101C132.423 139.486 132.343 138.871 132.183 138.257C132.023 137.616 131.836 137.054 131.622 136.573C131.275 135.799 130.981 135.251 130.74 134.93C130.607 134.716 130.54 134.583 130.54 134.529C130.54 134.423 130.593 134.369 130.7 134.369C130.86 134.369 131.087 134.489 131.381 134.73C131.969 135.318 132.423 136.012 132.744 136.814C133.091 137.616 133.265 138.444 133.265 139.299C133.265 140.448 132.945 141.53 132.303 142.545C131.849 143.267 131.208 143.855 130.379 144.309C129.551 144.763 128.603 144.99 127.534 144.99ZM97.3935 143.628C97.1263 143.628 96.6988 143.587 96.111 143.507C95.5499 143.454 95.0288 143.294 94.5479 143.026C94.0669 142.759 93.8264 142.332 93.8264 141.744C93.8264 141.396 93.9066 141.129 94.0669 140.942C94.1738 140.809 94.2807 140.742 94.3875 140.742C94.4944 140.742 94.5211 140.809 94.4677 140.942C94.3875 141.343 94.5345 141.717 94.9086 142.064C95.2827 142.439 95.6567 142.679 96.0308 142.786C96.298 142.839 96.5519 142.879 96.7923 142.906C97.0328 142.96 97.2599 142.986 97.4737 142.986C98.5425 142.986 99.5178 142.706 100.4 142.145C101.281 141.61 102.07 140.915 102.764 140.06C103.486 139.232 104.127 138.39 104.688 137.535C105.49 136.306 106.278 134.903 107.053 133.327C107.828 131.751 108.629 130.134 109.458 128.477C110.286 126.794 111.154 125.164 112.063 123.588C112.998 122.011 114.013 120.608 115.109 119.379C116.204 118.123 117.407 117.161 118.716 116.493C119.571 116.039 120.386 115.812 121.161 115.812C121.589 115.812 121.976 115.865 122.323 115.972C122.43 115.999 122.457 116.066 122.403 116.173C122.377 116.28 122.31 116.32 122.203 116.293C122.096 116.24 121.976 116.213 121.842 116.213C121.735 116.213 121.615 116.213 121.482 116.213C120.092 116.213 118.636 117.108 117.113 118.898C115.937 120.288 114.922 121.771 114.067 123.347C113.212 124.897 112.424 126.5 111.702 128.157C110.981 129.787 110.233 131.403 109.458 133.006C108.709 134.61 107.814 136.146 106.772 137.616C106.051 138.631 105.236 139.579 104.327 140.461C103.419 141.37 102.417 142.105 101.321 142.666C100.707 142.96 100.066 143.187 99.3975 143.347C98.7563 143.534 98.0883 143.628 97.3935 143.628ZM138.141 140.301C136.592 140.301 135.496 139.9 134.855 139.099C134.534 138.751 134.307 138.337 134.174 137.856C134.04 137.375 133.973 136.881 133.973 136.373C133.973 135.732 134.053 135.091 134.214 134.449C134.374 133.781 134.574 133.167 134.815 132.606C135.189 131.724 135.683 130.842 136.298 129.96C136.912 129.052 137.647 128.29 138.502 127.676C139.384 127.061 140.346 126.754 141.388 126.754C142.083 126.754 142.63 126.928 143.031 127.275C143.432 127.622 143.632 128.157 143.632 128.878C143.632 129.706 143.379 130.548 142.871 131.403C142.363 132.231 141.722 132.926 140.947 133.487C140.172 134.048 139.371 134.329 138.542 134.329C137.794 134.329 137.139 134.062 136.578 133.527C136.418 133.955 136.284 134.436 136.178 134.97C136.071 135.478 136.017 135.999 136.017 136.533C136.017 137.362 136.178 138.083 136.498 138.698C136.846 139.312 137.46 139.62 138.342 139.62C138.983 139.62 139.598 139.459 140.186 139.139C140.8 138.791 141.348 138.377 141.829 137.896C142.363 137.335 142.871 136.734 143.352 136.093C143.833 135.451 144.3 134.703 144.755 133.848C144.808 133.768 144.848 133.728 144.875 133.728C144.982 133.728 145.035 133.848 145.035 134.089C145.035 134.249 144.982 134.423 144.875 134.61C144.474 135.331 144.006 136.066 143.472 136.814C142.938 137.535 142.39 138.163 141.829 138.698C141.321 139.179 140.773 139.566 140.186 139.86C139.598 140.154 138.916 140.301 138.141 140.301ZM136.779 132.926C136.966 133.193 137.18 133.394 137.42 133.527C137.687 133.634 137.954 133.688 138.222 133.688C138.863 133.688 139.531 133.447 140.226 132.966C140.92 132.459 141.481 131.871 141.909 131.203C142.096 130.909 142.256 130.521 142.39 130.04C142.55 129.559 142.63 129.105 142.63 128.678C142.63 128.304 142.55 127.983 142.39 127.716C142.256 127.422 141.976 127.275 141.548 127.275C141.067 127.275 140.493 127.569 139.825 128.157C139.184 128.745 138.569 129.506 137.981 130.441C137.794 130.762 137.58 131.136 137.34 131.563C137.126 131.991 136.939 132.445 136.779 132.926ZM159.733 140.221C158.932 140.221 158.317 139.98 157.89 139.499C157.462 138.992 157.248 138.364 157.248 137.616C157.248 136.787 157.462 135.959 157.89 135.131C158.317 134.276 158.798 133.447 159.332 132.646C159.894 131.844 160.388 131.083 160.815 130.361C161.243 129.64 161.457 128.998 161.457 128.437C161.457 128.223 161.403 128.036 161.296 127.876C161.19 127.689 160.989 127.596 160.695 127.596C159.84 127.596 158.945 127.996 158.01 128.798C157.101 129.573 156.22 130.575 155.365 131.804C154.51 133.033 153.735 134.316 153.04 135.652C152.372 136.988 151.851 138.217 151.477 139.339C151.049 139.232 150.755 139.072 150.595 138.858C150.461 138.618 150.395 138.364 150.395 138.097C150.395 137.669 150.448 137.255 150.555 136.854C150.689 136.453 150.889 135.959 151.156 135.371C151.423 134.783 151.771 134.035 152.198 133.127C152.626 132.191 153.133 130.989 153.721 129.519C153.801 129.306 153.855 129.119 153.882 128.958C153.908 128.798 153.922 128.651 153.922 128.517C153.922 127.903 153.668 127.596 153.16 127.596C152.519 127.596 151.864 127.863 151.196 128.397C150.528 128.905 149.874 129.586 149.232 130.441C148.618 131.296 148.03 132.218 147.469 133.207C146.908 134.195 146.4 135.171 145.946 136.133C145.492 137.068 145.117 137.883 144.824 138.577C144.556 139.192 144.236 139.593 143.862 139.78C143.488 139.94 143.127 140.02 142.779 140.02C142.673 140.02 142.539 140.007 142.379 139.98C142.245 139.98 142.111 139.98 141.978 139.98C142.512 138.911 143.073 137.749 143.661 136.493C144.276 135.211 144.837 133.928 145.345 132.646C145.852 131.363 146.266 130.134 146.587 128.958C146.908 127.783 147.068 126.767 147.068 125.912C147.068 125.805 147.055 125.725 147.028 125.672C147.028 125.618 147.028 125.565 147.028 125.511C147.028 125.431 147.055 125.391 147.108 125.391C147.375 125.391 147.589 125.565 147.749 125.912C147.91 126.233 148.017 126.607 148.07 127.034C148.15 127.435 148.19 127.756 148.19 127.996C148.19 128.664 148.11 129.359 147.95 130.081C147.789 130.775 147.602 131.363 147.389 131.844C148.404 130.481 149.446 129.319 150.515 128.357C151.61 127.395 152.693 126.914 153.761 126.914C154.483 126.914 155.004 127.061 155.324 127.355C155.645 127.649 155.805 128.063 155.805 128.598C155.805 128.972 155.739 129.346 155.605 129.72C155.498 130.094 155.311 130.602 155.044 131.243C156.059 129.853 157.048 128.785 158.01 128.036C158.998 127.288 159.974 126.914 160.936 126.914C161.711 126.914 162.285 127.088 162.659 127.435C163.06 127.783 163.26 128.25 163.26 128.838C163.26 129.479 163.047 130.241 162.619 131.123C162.218 131.978 161.751 132.873 161.216 133.808C160.682 134.716 160.201 135.585 159.773 136.413C159.373 137.215 159.172 137.883 159.172 138.417C159.172 138.711 159.239 138.978 159.373 139.219C159.506 139.459 159.747 139.579 160.094 139.579C160.548 139.579 160.976 139.433 161.377 139.139C161.804 138.818 162.165 138.484 162.459 138.137C163.073 137.469 163.634 136.734 164.142 135.932C164.676 135.104 165.198 134.235 165.705 133.327C165.785 133.22 165.839 133.167 165.866 133.167C165.972 133.167 166.026 133.287 166.026 133.527C166.026 133.688 165.999 133.808 165.946 133.888C165.465 134.77 164.957 135.638 164.423 136.493C163.888 137.322 163.234 138.123 162.459 138.898C162.111 139.245 161.711 139.553 161.256 139.82C160.802 140.087 160.294 140.221 159.733 140.221ZM166.533 140.221C165.785 140.221 165.237 139.98 164.89 139.499C164.542 138.992 164.368 138.377 164.368 137.656C164.368 137.442 164.382 137.228 164.409 137.014C164.462 136.774 164.515 136.533 164.569 136.293C164.863 135.224 165.317 134.035 165.932 132.726C166.573 131.39 167.187 130.201 167.775 129.159C168.123 128.571 168.443 128.157 168.737 127.916C169.031 127.649 169.352 127.462 169.699 127.355C170.046 127.221 170.461 127.075 170.942 126.914C171.075 126.861 171.209 126.821 171.342 126.794C171.476 126.767 171.623 126.741 171.783 126.714C171.249 127.248 170.701 127.889 170.14 128.638C169.606 129.386 169.018 130.415 168.376 131.724C168.029 132.419 167.682 133.193 167.334 134.048C167.014 134.903 166.733 135.705 166.493 136.453C166.252 137.201 166.119 137.789 166.092 138.217C166.065 138.724 166.132 139.085 166.292 139.299C166.453 139.513 166.666 139.62 166.934 139.62C167.388 139.62 167.815 139.459 168.216 139.139C168.644 138.818 169.018 138.484 169.338 138.137C169.926 137.469 170.474 136.734 170.982 135.932C171.516 135.131 172.037 134.276 172.545 133.367C172.625 133.26 172.692 133.207 172.745 133.207C172.852 133.207 172.906 133.287 172.906 133.447C172.906 133.581 172.879 133.688 172.825 133.768C172.344 134.65 171.837 135.531 171.302 136.413C170.768 137.295 170.113 138.123 169.338 138.898C168.991 139.245 168.577 139.553 168.096 139.82C167.642 140.087 167.121 140.221 166.533 140.221ZM171.423 124.469C171.129 124.469 170.875 124.362 170.661 124.149C170.474 123.935 170.38 123.681 170.38 123.387C170.38 123.013 170.527 122.679 170.821 122.385C171.142 122.091 171.489 121.918 171.863 121.864C172.157 121.864 172.398 121.971 172.585 122.185C172.799 122.372 172.906 122.626 172.906 122.946C172.906 123.294 172.759 123.641 172.465 123.988C172.171 124.309 171.823 124.469 171.423 124.469ZM180.836 140.261C179.981 140.261 179.313 140.06 178.832 139.66C178.378 139.232 178.044 138.711 177.83 138.097C177.617 137.482 177.483 136.854 177.43 136.213C177.403 135.571 177.389 135.024 177.389 134.569C176.935 135.104 176.428 135.718 175.866 136.413C175.332 137.108 174.824 137.776 174.343 138.417C173.889 139.032 173.528 139.553 173.261 139.98H171.297C171.671 139.713 172.192 139.245 172.86 138.577C173.555 137.883 174.303 137.121 175.105 136.293C175.906 135.438 176.668 134.636 177.389 133.888L177.63 130.802C177.657 130.668 177.67 130.468 177.67 130.201C177.697 129.907 177.71 129.6 177.71 129.279C177.71 129.092 177.71 128.905 177.71 128.718C177.71 128.531 177.683 128.357 177.63 128.197C177.55 127.716 177.323 127.475 176.949 127.475C176.681 127.475 176.454 127.609 176.267 127.876C175.973 128.25 175.666 128.691 175.345 129.199C175.051 129.706 174.851 130.054 174.744 130.241L172.5 134.449C172.393 134.69 172.286 134.81 172.179 134.81C172.099 134.81 172.059 134.73 172.059 134.569C172.059 134.382 172.126 134.155 172.259 133.888C172.633 133.193 172.954 132.565 173.221 132.004C173.488 131.443 173.809 130.815 174.183 130.121C174.53 129.506 174.851 128.932 175.145 128.397C175.466 127.836 175.84 127.395 176.267 127.075C176.721 126.727 177.283 126.553 177.951 126.553C178.699 126.553 179.206 126.821 179.474 127.355C179.741 127.863 179.874 128.477 179.874 129.199C179.874 129.706 179.861 130.241 179.834 130.802C179.834 131.336 179.808 131.791 179.754 132.165C180.449 131.363 181.17 130.468 181.918 129.479C182.667 128.491 183.241 127.702 183.642 127.115H185.566C185.245 127.355 184.751 127.809 184.083 128.477C183.415 129.145 182.693 129.893 181.918 130.722C181.144 131.523 180.395 132.298 179.674 133.046C179.647 133.394 179.621 133.755 179.594 134.129C179.594 134.476 179.594 134.837 179.594 135.211C179.594 135.959 179.634 136.68 179.714 137.375C179.794 137.829 179.941 138.31 180.155 138.818C180.395 139.299 180.783 139.553 181.317 139.579C181.691 139.579 182.092 139.419 182.52 139.099C182.974 138.751 183.335 138.431 183.602 138.137C184.216 137.469 184.778 136.747 185.285 135.972C185.793 135.171 186.301 134.302 186.808 133.367C186.888 133.207 186.982 133.127 187.089 133.127C187.196 133.127 187.249 133.207 187.249 133.367C187.249 133.501 187.196 133.674 187.089 133.888C186.608 134.77 186.1 135.638 185.566 136.493C185.031 137.322 184.377 138.123 183.602 138.898C182.747 139.807 181.825 140.261 180.836 140.261Z" fill="#02558B"/>
<defs>
<filter id="filter0_d_43_1583" x="7.55485" y="0.841751" width="109.215" height="72.0324" filterUnits="userSpaceOnUse" color-interpolation-filters="sRGB">
<feFlood flood-opacity="0" result="BackgroundImageFix"/>
<feColorMatrix in="SourceAlpha" type="matrix" values="0 0 0 0 0 0 0 0 0 0 0 0 0 0 0 0 0 0 127 0" result="hardAlpha"/>
<feOffset dy="0.8016"/>
<feGaussianBlur stdDeviation="0.4008"/>
<feComposite in2="hardAlpha" operator="out"/>
<feColorMatrix type="matrix" values="0 0 0 0 0 0 0 0 0 0 0 0 0 0 0 0 0 0 0.25 0"/>
<feBlend mode="normal" in2="BackgroundImageFix" result="effect1_dropShadow_43_1583"/>
<feBlend mode="normal" in="SourceGraphic" in2="effect1_dropShadow_43_1583" result="shape"/>
</filter>
<filter id="filter1_d_43_1583" x="21.6033" y="47.5191" width="115.898" height="94.9095" filterUnits="userSpaceOnUse" color-interpolation-filters="sRGB">
<feFlood flood-opacity="0" result="BackgroundImageFix"/>
<feColorMatrix in="SourceAlpha" type="matrix" values="0 0 0 0 0 0 0 0 0 0 0 0 0 0 0 0 0 0 127 0" result="hardAlpha"/>
<feOffset dy="0.8016"/>
<feGaussianBlur stdDeviation="0.4008"/>
<feComposite in2="hardAlpha" operator="out"/>
<feColorMatrix type="matrix" values="0 0 0 0 0 0 0 0 0 0 0 0 0 0 0 0 0 0 0.25 0"/>
<feBlend mode="normal" in2="BackgroundImageFix" result="effect1_dropShadow_43_1583"/>
<feBlend mode="normal" in="SourceGraphic" in2="effect1_dropShadow_43_1583" result="shape"/>
</filter>
<filter id="filter2_d_43_1583" x="0.245885" y="33.801" width="136.608" height="121.065" filterUnits="userSpaceOnUse" color-interpolation-filters="sRGB">
<feFlood flood-opacity="0" result="BackgroundImageFix"/>
<feColorMatrix in="SourceAlpha" type="matrix" values="0 0 0 0 0 0 0 0 0 0 0 0 0 0 0 0 0 0 127 0" result="hardAlpha"/>
<feOffset dy="0.8016"/>
<feGaussianBlur stdDeviation="0.4008"/>
<feComposite in2="hardAlpha" operator="out"/>
<feColorMatrix type="matrix" values="0 0 0 0 0 0 0 0 0 0 0 0 0 0 0 0 0 0 0.25 0"/>
<feBlend mode="normal" in2="BackgroundImageFix" result="effect1_dropShadow_43_1583"/>
<feBlend mode="normal" in="SourceGraphic" in2="effect1_dropShadow_43_1583" result="shape"/>
</filter>
<linearGradient id="paint0_linear_43_1583" x1="149.982" y1="-14.2754" x2="31.0231" y2="190.335" gradientUnits="userSpaceOnUse">
<stop offset="0.31457" stop-color="#F0F0F0"/>
<stop offset="1" stop-color="#777777"/>
</linearGradient>
</defs>
</svg>
